{"title":"Kyaa Super Kool Hain Hum [2012]-1CD-DVDRip-By-K@rtik [EXD Exclus","uid":7634253,"size":746444291,"categoryP":"video","categoryS":"movies","magnet":"?xt=urn:btih:7e148e5203b4cd446345ee99fcac42bc9cb20b21&amp;dn=Kyaa+Super+Kool+Hain+Hum+%5B2012%5D-1CD-DVDRip-By-K%40rtik+%5BEXD+Exclus&amp;tr=udp%3A%2F%2Ftracker.openbittorrent.com%3A80&amp;tr=udp%3A%2F%2Fopen.demonii.com%3A1337&amp;tr=udp%3A%2F%2Ftracker.coppersurfer.tk%3A6969&amp;tr=udp%3A%2F%2Fexodus.desync.com%3A6969","seeders":2,"leechers":0,"uploader":"TeamExD","files":4,"time":1347603168,"description":"Format                                   : Matroska\nFormat version                           : Version 2\nFile size                                : 697 MiB\nDuration                                 : 2h 16mn\nOverall bit rate                         : 715 Kbps\nMovie name                               : Kyaa Super Kool Hain Hum [2012]-1CD-DVDRip By K@rtik [EXD Exclusive]\nCodec ID                                 : V_MPEG4/ISO/AVC\nDuration                                 : 2h 16mn\nBit rate                                 : 586 Kbps\nWidth                                    : 688 pixels\nHeight                                   : 288 pixels\nDisplay aspect ratio                     : 2.40:1\nFrame rate                               : 23.976 fps\nColor space                              : YUV\nBits/(Pixel*Frame)                       : 0.123\nStream size                              : 558 MiB (80%)\nTitle                                    : K@rtik\nCodec ID                                 : A_AC3\nDuration                                 : 2h 16mn\nBit rate mode                            : Constant\nBit rate                                 : 128 Kbps\nChannel(s)                               : 2 channels\nChannel positions                        : Front: L R\nSampling rate                            : 48.0 KHz\nStream size                              : 125 MiB (18%)\nTitle                                    : K@rtik\nLanguage                                 : Hindi &lt;a href=&quot;\nhttp://img210.imageshack.us/img210/5512/exdp.jpg&quot; rel=&quot;nofollow&quot; target=&quot;_NEW&quot;&gt;\nhttp://img210.imageshack.us/img210/5512/exdp.jpg&lt;/a&gt; &lt;a href=&quot;\nhttp://img802.imageshack.us/img802/1875/kyasuerkoolhainham001.jpg&quot; rel=&quot;nofollow&quot; target=&quot;_NEW&quot;&gt;\nhttp://img802.imageshack.us/img802/1875/kyasuerkoolhainham001.jpg&lt;/a&gt; &lt;a href=&quot;\nhttp://img839.imageshack.us/img839/1593/22655253.png&quot; rel=&quot;nofollow&quot; target=&quot;_NEW&quot;&gt;\nhttp://img839.imageshack.us/img839/1593/22655253.png&lt;/a&gt; &lt;a href=&quot;\nhttp://img823.imageshack.us/img823/1854/18598680.png&quot; rel=&quot;nofollow&quot; target=&quot;_NEW&quot;&gt;\nhttp://img823.imageshack.us/img823/1854/18598680.png&lt;/a&gt; &lt;a href=&quot;\nhttp://img823.imageshack.us/img823/9082/69250847.png&quot; rel=&quot;nofollow&quot; target=&quot;_NEW&quot;&gt;\nhttp://img823.imageshack.us/img823/9082/69250847.png&lt;/a&gt; &lt;a href=&quot;\nhttp://img171.imageshack.us/img171/5220/32122914.png&quot; rel=&quot;nofollow&quot; target=&quot;_NEW&quot;&gt;\nhttp://img171.imageshack.us/img171/5220/32122914.png&lt;/a&gt; &lt;a href=&quot;\nhttp://img145.imageshack.us/img145/7050/76521208.png&quot; rel=&quot;nofollow&quot; target=&quot;_NEW&quot;&gt;\nhttp://img145.imageshack.us/img145/7050/76521208.png&lt;/a&gt; &lt;a href=&quot;\nhttp://img441.imageshack.us/img441/9338/51309972.png&quot; rel=&quot;nofollow&quot; target=&quot;_NEW&quot;&gt;\nhttp://img441.imageshack.us/img441/9338/51309972.png&lt;/a&gt; &lt;a href=&quot;\nhttp://img7.imageshack.us/img7/9316/98427516.png&quot; rel=&quot;nofollow&quot; target=&quot;_NEW&quot;&gt;\nhttp://img7.imageshack.us/img7/9316/98427516.png&lt;/a&gt; &lt;a href=&quot;\nhttp://img829.imageshack.us/img829/4845/70459871.png&quot; rel=&quot;nofollow&quot; target=&quot;_NEW&quot;&gt;\nhttp://img829.imageshack.us/img829/4845/70459871.png&lt;/a&gt; &lt;a href=&quot;\nhttp://img204.imageshack.us/img204/8094/81994153.png&quot; rel=&quot;nofollow&quot; target=&quot;_NEW&quot;&gt;\nhttp://img204.imageshack.us/img204/8094/81994153.png&lt;/a&gt; &lt;a href=&quot;\nhttp://img341.imageshack.us/img341/8673/49031796.png&quot; rel=&quot;nofollow&quot; target=&quot;_NEW&quot;&gt;\nhttp://img341.imageshack.us/img341/8673/49031796.png&lt;/a&gt; &lt;a href=&quot;\nhttp://img684.imageshack.us/img684/9179/71436143.png&quot; rel=&quot;nofollow&quot; target=&quot;_NEW&quot;&gt;\nhttp://img684.imageshack.us/img684/9179/71436143.png&lt;/a&gt; &lt;a href=&quot;\nhttp://img94.imageshack.us/img94/2505/83085849.png&quot; rel=&quot;nofollow&quot; target=&quot;_NEW&quot;&gt;\nhttp://img94.imageshack.us/img94/2505/83085849.png&lt;/a&gt;\n","torrent":{"xt":"urn:btih:7e148e5203b4cd446345ee99fcac42bc9cb20b21","amp;dn":"Kyaa+Super+Kool+Hain+Hum+%5B2012%5D-1CD-DVDRip-By-K%40rtik+%5BEXD+Exclus","amp;tr":["udp%3A%2F%2Ftracker.openbittorrent.com%3A80","udp%3A%2F%2Fopen.demonii.com%3A1337","udp%3A%2F%2Ftracker.coppersurfer.tk%3A6969","udp%3A%2F%2Fexodus.desync.com%3A6969"],"infoHash":"7e148e5203b4cd446345ee99fcac42bc9cb20b21","infoHashBuffer":{"type":"Buffer","data":[126,20,142,82,3,180,205,68,99,69,238,153,252,172,66,188,156,178,11,33]},"announce":[],"urlList":[]}}